<svg width="14" height="14" viewBox="0 0 14 14" fill="none" xmlns="http://www.w3.org/2000/svg">
<path d="M4.128 8.832C4.128 7.328 5.73333 6.48 8.944 6.288V5.936C8.944 5.36 8.784 4.912 8.464 4.592C8.15467 4.26133 7.73867 4.096 7.216 4.096C5.95733 4.096 5.328 4.78933 5.328 6.176H4.464C4.464 5.25867 4.71467 4.56533 5.216 4.096C5.71733 3.616 6.43733 3.376 7.376 3.376C8.25067 3.376 8.928 3.62133 9.408 4.112C9.888 4.60267 10.128 5.29067 10.128 6.176V9.696C10.832 9.696 11.44 9.40267 11.952 8.816C12.464 8.21867 12.72 7.424 12.72 6.432C12.72 4.928 12.256 3.712 11.328 2.784C10.4107 1.856 9.184 1.392 7.648 1.392C5.86667 1.392 4.448 1.93067 3.392 3.008C2.34667 4.07467 1.824 5.50933 1.824 7.312C1.824 8.944 2.35733 10.2667 3.424 11.28C4.49067 12.2827 5.89867 12.784 7.648 12.784C9.152 12.784 10.576 12.3307 11.92 11.424L12.288 12.208C11.712 12.624 11.0027 12.9493 10.16 13.184C9.328 13.4187 8.49067 13.536 7.648 13.536C5.696 13.536 4.096 12.9547 2.848 11.792C1.6 10.6293 0.976 9.136 0.976 7.312C0.976 5.264 1.57333 3.64267 2.768 2.448C3.97333 1.24267 5.6 0.639999 7.648 0.639999C9.408 0.639999 10.8373 1.184 11.936 2.272C13.0347 3.36 13.584 4.74667 13.584 6.432C13.584 7.62667 13.2373 8.58667 12.544 9.312C11.8613 10.0373 11.056 10.4 10.128 10.4H10.064C9.62667 10.4 9.33333 10.2613 9.184 9.984C9.04533 9.70667 8.96533 9.29067 8.944 8.736C8.67733 9.29067 8.29867 9.71733 7.808 10.016C7.31733 10.3147 6.77867 10.464 6.192 10.464C5.57333 10.464 5.072 10.3147 4.688 10.016C4.31467 9.71733 4.128 9.32267 4.128 8.832ZM6.496 9.712C7.14667 9.712 7.71733 9.47733 8.208 9.008C8.69867 8.528 8.944 7.86133 8.944 7.008V6.928C6.50133 7.04533 5.28 7.62667 5.28 8.672C5.28 8.98133 5.392 9.232 5.616 9.424C5.84 9.616 6.13333 9.712 6.496 9.712Z" fill="black"/>
</svg>
