<svg width="32" height="32" viewBox="0 0 32 32" fill="none" xmlns="http://www.w3.org/2000/svg">
<path fill-rule="evenodd" clip-rule="evenodd" d="M25.62 16.7161C25.62 16.0425 25.5595 15.3948 25.4472 14.7729H16.5V18.4477H21.6127C21.3925 19.6352 20.7232 20.6413 19.717 21.315V23.6986H22.7872C24.5836 22.0447 25.62 19.6093 25.62 16.7161Z" fill="#4285F4"/>
<path fill-rule="evenodd" clip-rule="evenodd" d="M16.4973 25.9997C19.0623 25.9997 21.2128 25.149 22.7846 23.6981L19.7144 21.3144C18.8637 21.8844 17.7755 22.2213 16.4973 22.2213C14.023 22.2213 11.9287 20.5501 11.1817 18.3047H8.00781V20.766C9.57099 23.8708 12.7837 25.9997 16.4973 25.9997Z" fill="#34A853"/>
<path fill-rule="evenodd" clip-rule="evenodd" d="M11.1843 18.3047C10.9943 17.7347 10.8863 17.1259 10.8863 16.4997C10.8863 15.8736 10.9943 15.2648 11.1843 14.6948V12.2334H8.01045C7.36704 13.5159 7 14.9668 7 16.4997C7 18.0327 7.36704 19.4836 8.01045 20.7661L11.1843 18.3047Z" fill="#FBBC05"/>
<path fill-rule="evenodd" clip-rule="evenodd" d="M16.4973 10.7784C17.8921 10.7784 19.1444 11.2577 20.1289 12.1991L22.8537 9.47431C21.2084 7.94136 19.058 7 16.4973 7C12.7837 7 9.57099 9.12886 8.00781 12.2336L11.1817 14.695C11.9287 12.4495 14.023 10.7784 16.4973 10.7784Z" fill="#EA4335"/>
</svg>
