<svg width="40" height="34" viewBox="0 0 40 34" fill="none" xmlns="http://www.w3.org/2000/svg">
<path d="M26.6982 23.4121L20.1159 16.8297L13.5335 23.4121" stroke="black" stroke-width="3.29119" stroke-linecap="round" stroke-linejoin="round"/>
<path d="M20.1162 31.6401L20.1162 16.8298" stroke="black" stroke-width="3.29119" stroke-linecap="round" stroke-linejoin="round"/>
<path d="M34.7292 26.8512C36.1599 25.8452 37.2328 24.4094 37.7921 22.7523C38.3515 21.0952 38.3683 19.3029 37.84 17.6356C37.3118 15.9683 36.266 14.5127 34.8544 13.48C33.4428 12.4474 31.7389 11.8914 29.9899 11.8928H27.9164C27.4215 9.9639 26.4955 8.17247 25.208 6.65331C23.9205 5.13414 22.3052 3.92685 20.4836 3.12231C18.6621 2.31776 16.6817 1.93694 14.6917 2.00851C12.7016 2.08007 10.7537 2.60216 8.99464 3.53547C7.23556 4.46878 5.71113 5.78899 4.53612 7.3967C3.3611 9.00442 2.56611 10.8577 2.21101 12.8172C1.85591 14.7766 1.94993 16.791 2.48602 18.7088C3.02211 20.6267 3.98628 22.3979 5.30595 23.8892" stroke="black" stroke-width="3.29119" stroke-linecap="round" stroke-linejoin="round"/>
</svg>
