<svg width="30" height="30" viewBox="0 0 30 30" fill="none" xmlns="http://www.w3.org/2000/svg">
<path d="M12.1278 19.6875H17.8722V17.8125H12.1278V19.6875ZM17.8722 19.6875C19.9103 19.6875 21.5625 21.3397 21.5625 23.3778H23.4375C23.4375 20.3042 20.9458 17.8125 17.8722 17.8125V19.6875ZM12.1278 17.8125C9.05419 17.8125 6.5625 20.3042 6.5625 23.3778H8.4375C8.4375 21.3397 10.0897 19.6875 12.1278 19.6875V17.8125ZM17.8125 11.25C17.8125 12.8033 16.5533 14.0625 15 14.0625V15.9375C17.5888 15.9375 19.6875 13.8388 19.6875 11.25H17.8125ZM15 14.0625C13.4467 14.0625 12.1875 12.8033 12.1875 11.25H10.3125C10.3125 13.8388 12.4112 15.9375 15 15.9375V14.0625ZM12.1875 11.25C12.1875 9.6967 13.4467 8.4375 15 8.4375V6.5625C12.4112 6.5625 10.3125 8.66117 10.3125 11.25H12.1875ZM15 8.4375C16.5533 8.4375 17.8125 9.6967 17.8125 11.25H19.6875C19.6875 8.66117 17.5888 6.5625 15 6.5625V8.4375ZM25.3125 15C25.3125 20.6954 20.6954 25.3125 15 25.3125V27.1875C21.731 27.1875 27.1875 21.731 27.1875 15H25.3125ZM15 25.3125C9.30456 25.3125 4.6875 20.6954 4.6875 15H2.8125C2.8125 21.731 8.26903 27.1875 15 27.1875V25.3125ZM4.6875 15C4.6875 9.30456 9.30456 4.6875 15 4.6875V2.8125C8.26903 2.8125 2.8125 8.26903 2.8125 15H4.6875ZM15 4.6875C20.6954 4.6875 25.3125 9.30456 25.3125 15H27.1875C27.1875 8.26903 21.731 2.8125 15 2.8125V4.6875Z" fill="black"/>
</svg>
